<?xml version="1.0" encoding="utf-8"?>
<!-- Generator: Adobe Illustrator 21.1.0, SVG Export Plug-In . SVG Version: 6.00 Build 0)  -->
<svg version="1.1" id="eps" xmlns="http://www.w3.org/2000/svg" xmlns:xlink="http://www.w3.org/1999/xlink" x="0px" y="0px"
	 viewBox="0 0 60 60" style="enable-background:new 0 0 60 60;" xml:space="preserve">
<path d="M55.75 20.36L31.11 3.94c-.67-.45-1.55-.45-2.22 0L4.25 20.36a2.499 2.499 0 00-.69 3.47c.15.23.46.29.69.14L30 6.8l25.75 17.17c.23.15.54.09.69-.14.77-1.15.46-2.7-.69-3.47zM50.5 24.5h-41c-1.1 0-2 .9-2 2V45c0 6.35 5.15 11.5 11.5 11.5h31.5c1.1 0 2-.9 2-2v-28a2 2 0 00-2-2zm-1 29H19c-4.69 0-8.5-3.81-8.5-8.5V27.5h39z"/>
</svg>