<?xml version="1.0" encoding="UTF-8" standalone="no"?>
<!DOCTYPE svg PUBLIC "-//W3C//DTD SVG 20010904//EN"
              "http://www.w3.org/TR/2001/REC-SVG-20010904/DTD/svg10.dtd">

<svg xmlns="http://www.w3.org/2000/svg"
     width="4.70833in" height="2.98611in"
     viewBox="40 0 330 155">
  <path id="Selection"
        fill="none" stroke="currentColor" stroke-width="8"
        d="M 84.07,114.00
           C 82.45,105.33 82.84,102.59 84.07,94.00
             91.99,41.85 155.05,31.66 198.00,40.20
             210.17,42.62 220.94,46.13 232.00,51.76
             237.55,54.58 243.14,57.24 246.00,63.00
             234.17,63.97 223.23,68.17 213.00,74.00
             213.00,74.00 234.00,69.46 234.00,69.46
             253.86,65.74 275.17,65.85 294.00,73.85
             301.49,77.03 310.53,81.15 315.35,88.01
             320.90,95.92 313.87,99.06 314.71,106.00
             315.31,110.93 319.89,114.42 322.00,119.00
             317.69,117.94 313.80,117.97 310.00,115.35
             301.58,109.56 297.86,99.29 290.00,93.91
             282.65,88.89 277.44,88.90 269.00,89.00
             251.66,89.21 248.01,99.05 237.00,107.07
             228.59,113.21 216.38,116.87 206.00,117.00
             195.76,117.12 184.21,118.18 175.00,113.10
             164.94,107.55 162.07,98.43 153.91,91.68
             139.27,79.57 114.35,82.21 100.00,93.52
             89.89,101.48 89.88,106.61 84.07,114.00 Z
           M 213.00,74.00
           C 213.00,74.00 212.00,74.00 212.00,74.00
             212.00,74.00 213.00,75.00 213.00,75.00
             213.00,75.00 213.00,74.00 213.00,74.00 Z
           M 125.00,95.00
           C 135.23,95.00 141.71,94.32 148.15,104.00
             157.09,117.43 146.02,136.00 130.00,134.90
             114.80,133.86 109.38,120.11 116.28,114.90
             121.81,110.43 129.03,116.03 132.98,114.90
             140.41,113.23 139.23,104.43 134.86,100.22
             132.06,97.54 128.23,96.92 125.00,95.00 Z
           M 267.00,95.00
           C 272.05,95.00 276.31,94.63 281.00,97.00
             283.89,98.46 286.12,100.40 288.01,103.04
             294.46,112.06 292.15,125.03 282.99,131.30
             274.57,137.06 260.38,135.63 255.31,125.99
             254.64,124.71 254.27,123.44 254.17,122.00
             254.09,120.75 254.26,119.25 254.74,118.09
             258.61,108.67 269.59,116.27 273.98,115.08
             281.64,113.00 279.56,103.49 274.87,99.57
             274.87,99.57 267.00,95.00 267.00,95.00 Z
           M 124.00,130.00
           C 122.15,126.40 121.87,126.17 118.00,125.00
             118.00,125.00 124.00,130.00 124.00,130.00 Z
           M 265.00,130.00
           C 263.15,126.40 262.87,126.17 259.00,125.00
             260.85,128.60 261.13,128.83 265.00,130.00 Z" />
</svg>
