<?xml version="1.0" encoding="UTF-8" standalone="no"?>
<!DOCTYPE svg PUBLIC "-//W3C//DTD SVG 20010904//EN"
              "http://www.w3.org/TR/2001/REC-SVG-20010904/DTD/svg10.dtd">


<svg xmlns="http://www.w3.org/2000/svg"
     width="4.70833in" height="2.98611in"
     viewBox="10 8 320 150">
  <path id="Selection"
        fill="none" stroke="red" stroke-width="8"
        d="M 122.00,40.00
           C 112.96,38.25 103.50,38.98 98.01,29.99
             92.78,21.44 99.39,11.88 106.92,16.92
             111.63,20.06 112.04,24.44 114.23,29.00
             116.24,33.17 118.99,36.55 122.00,40.00 Z
           M 137.00,23.00
           C 137.00,23.00 140.00,23.00 140.00,23.00
             140.00,23.00 143.00,26.00 143.00,26.00
             139.88,31.37 135.93,29.40 137.00,23.00 Z
           M 138.00,27.00
           C 138.00,27.00 137.00,27.00 137.00,27.00
             137.00,27.00 138.00,28.00 138.00,28.00
             138.00,28.00 138.00,27.00 138.00,27.00 Z
           M 81.00,27.76
           C 82.63,27.65 84.19,27.15 85.93,27.76
             90.74,28.60 90.95,36.17 85.93,38.20
             83.29,39.29 80.48,38.00 78.00,37.00
             78.00,37.00 81.00,27.76 81.00,27.76 Z
           M 140.00,28.00
           C 140.00,28.00 139.00,28.00 139.00,28.00
             139.00,28.00 140.00,29.00 140.00,29.00
             140.00,29.00 140.00,28.00 140.00,28.00 Z
           M 84.00,114.00
           C 83.55,110.58 82.90,107.48 83.09,104.00
             83.43,97.99 85.06,88.64 87.09,83.00
             98.41,51.47 132.69,38.05 164.00,38.00
             164.00,38.00 178.00,38.00 178.00,38.00
             194.37,38.03 215.39,43.45 230.00,50.75
             236.02,53.76 242.89,56.74 246.00,63.00
             234.17,63.97 223.23,68.17 213.00,74.00
             213.00,74.00 234.00,69.46 234.00,69.46
             253.86,65.74 275.17,65.85 294.00,73.85
             301.49,77.03 310.53,81.15 315.35,88.01
             320.90,95.92 313.87,99.06 314.71,106.00
             315.31,110.93 319.89,114.42 322.00,119.00
             317.69,117.94 313.80,117.97 310.00,115.35
             301.58,109.56 297.86,99.29 290.00,93.91
             282.65,88.89 277.44,88.90 269.00,89.00
             251.66,89.21 248.01,99.05 237.00,107.07
             228.59,113.21 216.38,116.87 206.00,117.00
             195.76,117.12 184.21,118.18 175.00,113.10
             164.94,107.55 162.07,98.43 153.91,91.68
             139.96,80.14 114.91,81.63 101.00,92.52
             88.98,101.93 89.79,106.72 84.00,114.00 Z
           M 98.00,43.00
           C 91.67,54.23 75.76,67.85 62.00,66.67
             57.50,66.29 52.60,64.83 49.39,61.52
             44.98,56.98 44.50,48.60 50.06,44.72
             57.52,39.52 71.05,45.12 79.00,46.54
             85.37,47.67 92.18,45.51 98.00,43.00 Z
           M 57.00,62.00
           C 55.50,57.91 54.95,57.70 51.00,56.00
             51.00,56.00 50.00,57.00 50.00,57.00
             52.27,60.73 52.73,61.07 57.00,62.00 Z
           M 55.00,76.00
           C 45.35,79.83 34.05,82.75 25.24,75.09
             19.84,70.39 21.36,60.48 30.00,61.20
             36.79,61.77 39.84,66.53 45.00,70.01
             48.55,72.41 51.02,72.84 55.00,74.00
             55.00,74.00 55.00,76.00 55.00,76.00 Z
           M 78.00,71.00
           C 78.68,75.05 76.24,79.61 72.80,82.00
             74.08,87.42 72.45,88.19 72.80,93.00
             72.86,101.76 77.64,121.33 66.90,126.15
             56.38,130.86 48.74,120.36 48.10,111.00
             47.42,101.17 52.26,93.13 58.43,86.00
             64.72,78.73 70.24,76.07 78.00,71.00 Z
           M 213.00,74.00
           C 213.00,74.00 212.00,74.00 212.00,74.00
             212.00,74.00 213.00,75.00 213.00,75.00
             213.00,75.00 213.00,74.00 213.00,74.00 Z
           M 34.09,92.88
           C 39.15,92.93 37.45,96.96 35.70,97.75
             33.58,98.72 29.21,96.08 34.09,92.88 Z
           M 129.00,95.00
           C 133.73,95.04 136.71,95.07 141.00,97.53
             144.24,99.39 146.61,101.76 148.47,105.00
             155.35,117.01 148.03,130.94 135.00,134.24
             127.20,136.21 115.68,131.56 114.05,123.00
             113.72,121.70 113.75,120.29 114.05,119.02
             117.25,108.41 128.74,116.25 132.98,115.47
             140.38,114.10 139.59,105.60 135.73,101.09
             135.73,101.09 129.00,95.00 129.00,95.00 Z
           M 269.00,95.00
           C 274.10,95.27 277.49,94.84 282.00,97.85
             284.96,99.83 287.72,102.81 289.31,106.00
             294.17,115.69 289.51,128.08 280.00,132.71
             271.88,136.67 258.64,134.01 255.01,125.00
             254.50,123.74 254.19,122.36 254.23,121.00
             254.64,108.25 270.41,116.20 273.96,115.48
             281.87,113.86 279.97,104.45 275.79,100.14
             275.79,100.14 269.00,95.00 269.00,95.00 Z
           M 55.00,105.00
           C 55.00,105.00 53.00,105.00 53.00,105.00
             51.72,109.52 51.72,111.48 53.00,116.00
             53.00,116.00 55.00,116.00 55.00,116.00
             56.32,111.34 56.13,109.66 55.00,105.00 Z
           M 102.00,106.00
           C 107.61,111.95 106.64,114.39 99.00,115.00
             97.74,110.33 98.44,109.22 102.00,106.00 Z
           M 103.00,108.00
           C 103.00,108.00 102.00,108.00 102.00,108.00
             102.00,108.00 103.00,109.00 103.00,109.00
             103.00,109.00 103.00,108.00 103.00,108.00 Z
           M 102.00,109.00
           C 102.00,109.00 101.00,109.00 101.00,109.00
             101.00,109.00 102.00,110.00 102.00,110.00
             102.00,110.00 102.00,109.00 102.00,109.00 Z
           M 103.00,110.00
           C 103.00,110.00 102.00,110.00 102.00,110.00
             102.00,110.00 103.00,111.00 103.00,111.00
             103.00,111.00 103.00,110.00 103.00,110.00 Z
           M 105.00,111.00
           C 105.00,111.00 104.00,111.00 104.00,111.00
             104.00,111.00 105.00,112.00 105.00,112.00
             105.00,112.00 105.00,111.00 105.00,111.00 Z
           M 105.00,113.00
           C 105.00,113.00 104.00,113.00 104.00,113.00
             104.00,113.00 105.00,114.00 105.00,114.00
             105.00,114.00 105.00,113.00 105.00,113.00 Z
           M 119.00,115.00
           C 119.00,115.00 118.00,115.00 118.00,115.00
             118.00,115.00 119.00,116.00 119.00,116.00
             119.00,116.00 119.00,115.00 119.00,115.00 Z
           M 125.00,130.00
           C 122.73,126.27 122.27,125.93 118.00,125.00
             120.04,128.82 120.82,129.10 125.00,130.00 Z
           M 265.00,130.00
           C 263.15,126.40 262.87,126.17 259.00,125.00
             260.85,128.60 261.13,128.83 265.00,130.00 Z
           M 91.00,125.00
           C 91.00,125.00 93.00,125.00 93.00,125.00
             93.00,125.00 98.00,130.00 98.00,130.00
             98.00,130.00 93.00,134.00 93.00,134.00
             93.00,134.00 86.00,130.00 86.00,130.00
             86.00,130.00 91.00,125.00 91.00,125.00 Z" />
</svg>
